<svg width="173" height="152" xmlns="http://www.w3.org/2000/svg" xmlns:xlink="http://www.w3.org/1999/xlink" overflow="hidden"><defs><clipPath id="clip0"><rect x="308" y="286" width="173" height="152"/></clipPath><clipPath id="clip1"><rect x="309" y="287" width="172" height="151"/></clipPath><clipPath id="clip2"><rect x="309" y="287" width="172" height="151"/></clipPath></defs><g clip-path="url(#clip0)" transform="translate(-308 -286)"><g clip-path="url(#clip1)"><g clip-path="url(#clip2)"><path d="M232.788 152.727C228.544 152.727 224.717 152.011 221.308 150.57 217.899 149.129 214.599 146.972 211.418 144.1L213.993 141.098C215.454 142.49 216.915 143.682 218.346 144.686 219.787 145.69 221.258 146.515 222.779 147.151 224.29 147.797 225.89 148.284 227.55 148.612 229.22 148.95 231.039 149.109 233.007 149.109 234.974 149.109 236.793 148.841 238.463 148.304 240.133 147.767 241.544 147.022 242.707 146.068 243.87 145.113 244.775 143.99 245.431 142.678 246.087 141.366 246.415 139.945 246.415 138.404L246.415 138.245C246.415 136.804 246.196 135.522 245.769 134.389 245.341 133.256 244.556 132.232 243.423 131.308 242.29 130.383 240.759 129.549 238.841 128.803 236.923 128.058 234.448 127.382 231.416 126.766 228.236 126.1 225.502 125.314 223.236 124.42 220.97 123.525 219.101 122.472 217.67 121.259 216.229 120.057 215.185 118.655 214.529 117.055 213.873 115.465 213.545 113.636 213.545 111.578L213.545 111.419C213.545 109.412 213.973 107.553 214.837 105.833 215.692 104.114 216.885 102.613 218.396 101.321 219.907 100.039 221.706 99.035 223.773 98.3193 225.84 97.6037 228.116 97.236 230.591 97.236 234.428 97.236 237.757 97.7727 240.56 98.8561 243.363 99.9394 246.106 101.579 248.78 103.786L246.275 106.947C243.751 104.74 241.206 103.17 238.662 102.245 236.108 101.321 233.364 100.854 230.442 100.854 228.474 100.854 226.695 101.122 225.095 101.659 223.505 102.196 222.143 102.931 221 103.856 219.867 104.78 218.992 105.863 218.386 107.096 217.78 108.328 217.481 109.64 217.481 111.022L217.481 111.181C217.481 112.622 217.69 113.914 218.127 115.077 218.555 116.23 219.34 117.283 220.473 118.238 221.606 119.192 223.186 120.047 225.204 120.822 227.222 121.597 229.806 122.313 232.937 122.979 239.099 124.261 243.542 126.08 246.275 128.415 248.999 130.751 250.37 133.902 250.37 137.858L250.37 138.017C250.37 140.174 249.923 142.171 249.049 143.99 248.164 145.819 246.951 147.37 245.411 148.652 243.87 149.934 242.021 150.938 239.875 151.654 237.728 152.369 235.362 152.727 232.788 152.727Z" fill="#808080" fill-rule="nonzero" fill-opacity="1" transform="matrix(1.00412 0 0 1 290.221 235.666)"/><path d="M290.764 152.886C286.559 152.886 282.763 152.131 279.373 150.61 275.984 149.089 273.082 147.062 270.666 144.517 268.251 141.973 266.383 139.031 265.071 135.691 263.759 132.351 263.103 128.833 263.103 125.136L263.103 124.976C263.103 121.279 263.769 117.741 265.11 114.381 266.452 111.012 268.331 108.05 270.746 105.476 273.161 102.911 276.083 100.864 279.493 99.353 282.902 97.8423 286.718 97.0769 290.923 97.0769 295.077 97.0769 298.854 97.8323 302.273 99.353 305.692 100.874 308.605 102.901 311.02 105.446 313.435 107.99 315.304 110.932 316.616 114.272 317.928 117.611 318.584 121.13 318.584 124.827 318.633 124.877 318.633 124.927 318.584 124.986 318.584 128.684 317.908 132.222 316.576 135.582 315.234 138.951 313.356 141.913 310.94 144.487 308.525 147.062 305.593 149.099 302.154 150.61 298.705 152.131 294.908 152.886 290.764 152.886ZM290.923 149.268C294.342 149.268 297.473 148.642 300.345 147.38 303.208 146.117 305.682 144.398 307.75 142.211 309.827 140.025 311.437 137.47 312.6 134.538 313.753 131.606 314.34 128.475 314.34 125.136L314.34 124.976C314.34 121.637 313.753 118.486 312.57 115.534 311.388 112.582 309.758 110.008 307.68 107.831 305.603 105.645 303.118 103.915 300.236 102.633 297.343 101.351 294.193 100.705 290.774 100.705 287.354 100.705 284.224 101.331 281.361 102.593 278.499 103.856 276.024 105.575 273.946 107.762 271.869 109.948 270.259 112.503 269.096 115.435 267.943 118.367 267.367 121.498 267.367 124.837L267.367 124.996C267.367 128.336 267.953 131.487 269.136 134.439 270.319 137.391 271.949 139.965 274.026 142.142 276.103 144.328 278.578 146.058 281.47 147.34 284.353 148.622 287.504 149.268 290.923 149.268Z" fill="#808080" fill-rule="nonzero" fill-opacity="1" transform="matrix(1.00412 0 0 1 290.221 235.666)"/><path d="M334.188 98.0112 338.134 98.0112 338.134 148.344 369.284 148.344 369.284 151.962 334.198 151.962 334.198 98.0112Z" fill="#808080" fill-rule="nonzero" fill-opacity="1" transform="matrix(1.00412 0 0 1 290.221 235.666)"/><path d="M383.527 98.0112 387.473 98.0112 387.473 151.962 383.527 151.962 383.527 98.0112Z" fill="#808080" fill-rule="nonzero" fill-opacity="1" transform="matrix(1.00412 0 0 1 290.221 235.666)"/><path d="M405.652 98.0112 409.369 98.0112 445.975 144.945 445.975 98.0112 449.762 98.0112 449.762 151.962 446.81 151.962 409.449 104.024 409.449 151.962 405.662 151.962 405.662 98.0112Z" fill="#808080" fill-rule="nonzero" fill-opacity="1" transform="matrix(1.00412 0 0 1 290.221 235.666)"/><path d="M467.414 98.0112 504.776 98.0112 504.776 101.629 471.36 101.629 471.36 123.148 501.367 123.148 501.367 126.766 471.36 126.766 471.36 151.952 467.424 151.952 467.424 98.0112Z" fill="#808080" fill-rule="nonzero" fill-opacity="1" transform="matrix(1.00412 0 0 1 290.221 235.666)"/><path d="M533.729 101.629 515.242 101.629 515.242 98.0112 556.162 98.0112 556.162 101.629 537.675 101.629 537.675 151.962 533.729 151.962 533.729 101.629Z" fill="#808080" fill-rule="nonzero" fill-opacity="1" transform="matrix(1.00412 0 0 1 290.221 235.666)"/><path d="M570.028 98.0112 607.767 98.0112 607.767 101.629 573.964 101.629 573.964 122.979 604.348 122.979 604.348 126.597 573.964 126.597 573.964 148.334 608.145 148.334 608.145 151.952 570.028 151.952 570.028 98.0112Z" fill="#808080" fill-rule="nonzero" fill-opacity="1" transform="matrix(1.00412 0 0 1 290.221 235.666)"/><path d="M648.001 152.886C644.055 152.886 640.408 152.17 637.048 150.729 633.689 149.288 630.786 147.33 628.341 144.835 625.896 142.34 623.998 139.398 622.626 136.009 621.255 132.62 620.579 128.992 620.579 125.145L620.579 124.986C620.579 121.18 621.274 117.592 622.666 114.192 624.057 110.803 625.976 107.831 628.421 105.287 630.866 102.742 633.768 100.735 637.128 99.2735 640.487 97.8124 644.165 97.0769 648.16 97.0769 650.625 97.0769 652.861 97.2857 654.859 97.6932 656.857 98.1007 658.706 98.697 660.415 99.4624 662.125 100.238 663.725 101.142 665.226 102.196 666.727 103.249 668.178 104.422 669.599 105.704L666.687 108.636C665.474 107.503 664.212 106.45 662.9 105.476 661.588 104.502 660.187 103.667 658.686 102.971 657.185 102.275 655.555 101.729 653.796 101.311 652.037 100.904 650.128 100.695 648.081 100.695 644.771 100.695 641.7 101.311 638.857 102.544 636.014 103.776 633.559 105.486 631.492 107.672 629.415 109.859 627.785 112.413 626.602 115.345 625.419 118.277 624.833 121.438 624.833 124.827L624.833 124.986C624.833 128.376 625.439 131.546 626.642 134.508 627.844 137.46 629.494 140.034 631.572 142.211 633.649 144.398 636.104 146.117 638.937 147.38 641.769 148.642 644.85 149.268 648.16 149.268 652.156 149.268 655.625 148.552 658.567 147.111 661.509 145.67 664.371 143.593 667.154 140.869L669.917 143.493C668.446 144.885 666.936 146.157 665.385 147.31 663.834 148.463 662.175 149.457 660.415 150.282 658.656 151.107 656.748 151.743 654.7 152.21 652.643 152.657 650.416 152.886 648.001 152.886Z" fill="#808080" fill-rule="nonzero" fill-opacity="1" transform="matrix(1.00412 0 0 1 290.221 235.666)"/><path d="M86.4021 53.3739 35.8212 100.069 78.6197 73.7594Z" fill="#A3FFF0" fill-rule="nonzero" fill-opacity="1" transform="matrix(1.00412 0 0 1 290.221 235.666)"/><path d="M86.4021 53.3739 188.021 59.8046 78.6197 73.7594Z" fill="#FFE582" fill-rule="nonzero" fill-opacity="1" transform="matrix(1.00412 0 0 1 290.221 235.666)"/><path d="M188.021 59.8046 130.493 124.708 78.6197 73.7594Z" fill="#F9C400" fill-rule="nonzero" fill-opacity="1" transform="matrix(1.00412 0 0 1 290.221 235.666)"/><path d="M78.6197 73.7594 22.8603 164.763 130.493 124.708Z" fill="#A6C748" fill-rule="nonzero" fill-opacity="1" transform="matrix(1.00412 0 0 1 290.221 235.666)"/><path d="M35.8212 100.069 22.8603 164.763 78.6197 73.7594Z" fill="#7CDECE" fill-rule="nonzero" fill-opacity="1" transform="matrix(1.00412 0 0 1 290.221 235.666)"/><path d="M22.8603 164.763 165.38 198.458 58.7908 164.177Z" fill="#535494" fill-rule="nonzero" fill-opacity="1" transform="matrix(1.00412 0 0 1 290.221 235.666)"/><path d="M130.493 124.708 165.38 198.458 22.8603 164.763Z" fill="#738A32" fill-rule="nonzero" fill-opacity="1" transform="matrix(1.00412 0 0 1 290.221 235.666)"/><path d="M188.021 59.8046 167.735 132.858 130.493 124.708Z" fill="#FF2129" fill-rule="nonzero" fill-opacity="1" transform="matrix(1.00412 0 0 1 290.221 235.666)"/><path d="M167.735 132.858 165.38 198.458 130.493 124.708Z" fill="#AB161B" fill-rule="nonzero" fill-opacity="1" transform="matrix(1.00412 0 0 1 290.221 235.666)"/></g></g></g></svg>